<svg width="30" height="30" viewBox="0 0 30 30" fill="none" xmlns="http://www.w3.org/2000/svg">
    <path fill-rule="evenodd" clip-rule="evenodd" d="M22.8009 2.26548C22.8009 1.48402 22.1674 0.850525 21.3859 0.850525H18.2897C17.5083 0.850525 16.8748 1.48402 16.8748 2.26548V5.33121C16.8748 6.11267 17.5083 6.74616 18.2897 6.74616H20.2356C21.0171 6.74616 21.6506 7.37966 21.6506 8.16112V27.7343C21.6506 28.5158 22.2841 29.1493 23.0655 29.1493H26.1618C26.9432 29.1493 27.5767 28.5158 27.5767 27.7343V8.1608C27.5767 7.37934 26.9432 6.74584 26.1618 6.74584H24.2159C23.4344 6.74584 22.8009 6.11235 22.8009 5.33089V2.26548ZM10.9085 2.26557C10.9085 1.48411 10.275 0.850614 9.49357 0.850614H6.39734C5.61589 0.850614 4.98239 1.48411 4.98239 2.26557V5.33107C4.98239 6.11252 4.34889 6.74602 3.56744 6.74602H1.41495C0.633496 6.74602 0 7.37952 0 8.16097V27.7345C0 28.5159 0.633496 29.1494 1.41495 29.1494H4.51118C5.29264 29.1494 5.92613 28.5159 5.92613 27.7345V8.1612C5.92613 7.37975 6.55963 6.74625 7.34108 6.74625H9.49357C10.275 6.74625 10.9085 6.11275 10.9085 5.3313V2.26557ZM16.7929 13.5512C16.7929 12.7698 16.1594 12.1363 15.3779 12.1363H12.2817C11.5002 12.1363 10.8667 12.7698 10.8667 13.5512V22.1757C10.8667 22.9572 11.5002 23.5907 12.2817 23.5907H15.3779C16.1594 23.5907 16.7929 22.9572 16.7929 22.1757V13.5512Z" fill="#2B6CB0"/>
</svg>
