<svg width="74" height="66" viewBox="0 0 74 66" fill="none" xmlns="http://www.w3.org/2000/svg">
<path d="M26.7017 35.9425C21.3367 35.9425 16.9583 32.065 16.9583 27.3075C16.9583 25.355 17.76 23.485 19.0858 22C17.7908 20.515 16.9583 18.645 16.9583 16.6925C16.9583 11.935 21.3675 8.0575 26.7017 8.0575L28.0275 8.14C28.7552 6.54928 29.9968 5.18748 31.5945 4.22772C33.1922 3.26796 35.0737 2.75359 37 2.75C41.0392 2.75 44.5233 4.9775 45.9725 8.14L47.2983 8.0575C52.6325 8.0575 57.0417 11.935 57.0417 16.6925C57.0417 18.645 56.24 20.515 54.9142 22C56.2092 23.485 57.0417 25.355 57.0417 27.3075C57.0417 32.065 52.6325 35.9425 47.2983 35.9425L45.9725 35.86C45.2448 37.4507 44.0032 38.8125 42.4055 39.7723C40.8078 40.732 38.9263 41.2464 37 41.25C35.0737 41.2464 33.1922 40.732 31.5945 39.7723C29.9968 38.8125 28.7552 37.4507 28.0275 35.86L26.7017 35.9425ZM37 35.75C38.9117 35.75 40.4533 34.375 40.515 32.725L40.1758 29.7275C39.1892 30.0575 38.11 30.25 37 30.25C35.89 30.25 34.8417 30.0575 33.9167 29.7275L33.485 32.725C33.5467 34.375 35.0883 35.75 37 35.75ZM47.2983 30.4425C49.2408 30.4425 50.875 29.04 50.875 27.28C50.875 26.125 50.0425 24.97 48.8092 24.4475L46.0958 23.2925C45.7258 25.3275 44.5233 27.0875 42.8275 28.325L45.325 29.8925C45.88 30.25 46.5583 30.4425 47.2983 30.4425ZM45.2942 14.1075L42.7658 15.6475C44.4925 16.885 45.695 18.645 46.065 20.625L48.7783 19.525C50.0425 18.975 50.875 17.875 50.875 16.6925C50.875 14.96 49.2408 13.5575 47.2983 13.5575C46.5892 13.5575 45.9108 13.75 45.2942 14.1075ZM37 8.25C35.0883 8.25 33.5467 9.625 33.485 11.275L33.9167 14.2725C34.8417 13.9425 35.89 13.75 37 13.75C38.11 13.75 39.1892 13.9425 40.1758 14.2725L40.515 11.275C40.4533 9.625 38.9117 8.25 37 8.25ZM26.7017 13.5575C24.7592 13.5575 23.125 14.96 23.125 16.6925C23.125 17.875 23.9575 18.975 25.1908 19.525L27.9042 20.625C28.2742 18.645 29.4767 16.885 31.1725 15.6475L28.675 14.1075C28.12 13.75 27.4417 13.5575 26.7017 13.5575ZM25.1908 24.475C23.9575 25.025 23.125 26.125 23.125 27.28C23.125 29.0125 24.7592 30.415 26.7017 30.415C27.4108 30.415 28.0892 30.25 28.7058 29.865L31.2033 28.3525C29.4767 27.115 28.2742 25.355 27.9042 23.375L25.1908 24.475ZM37 60.5C29.6402 60.5 22.5819 57.8924 17.3778 53.2509C12.1737 48.6094 9.25 42.3141 9.25 35.75C16.6098 35.75 23.6681 38.3576 28.8722 42.9991C34.0763 47.6406 37 53.9359 37 60.5C37 53.9359 39.9237 47.6406 45.1278 42.9991C50.3319 38.3576 57.3902 35.75 64.75 35.75C64.75 42.3141 61.8263 48.6094 56.6222 53.2509C51.4181 57.8924 44.3598 60.5 37 60.5ZM44.5233 53.79C47.4248 52.8196 50.0597 51.3064 52.2509 49.3521C54.442 47.3979 56.1387 45.0478 57.2267 42.46C51.3683 44.385 46.7125 48.565 44.5233 53.79ZM16.7733 42.46C17.8613 45.0478 19.558 47.3979 21.7491 49.3521C23.9403 51.3064 26.5752 52.8196 29.4767 53.79C27.3183 48.565 22.6317 44.4125 16.7733 42.46Z" fill="#FFEB00"/>
</svg>
