<svg width="159" height="66" viewBox="0 0 159 66" fill="none" xmlns="http://www.w3.org/2000/svg">
<path d="M26.7017 35.9425C21.3367 35.9425 16.9583 32.065 16.9583 27.3075C16.9583 25.355 17.76 23.485 19.0858 22C17.7908 20.515 16.9583 18.645 16.9583 16.6925C16.9583 11.935 21.3675 8.0575 26.7017 8.0575L28.0275 8.14C28.7552 6.54928 29.9968 5.18748 31.5945 4.22772C33.1922 3.26796 35.0737 2.75359 37 2.75C41.0392 2.75 44.5233 4.9775 45.9725 8.14L47.2983 8.0575C52.6325 8.0575 57.0417 11.935 57.0417 16.6925C57.0417 18.645 56.24 20.515 54.9142 22C56.2092 23.485 57.0417 25.355 57.0417 27.3075C57.0417 32.065 52.6325 35.9425 47.2983 35.9425L45.9725 35.86C45.2448 37.4507 44.0032 38.8125 42.4055 39.7723C40.8078 40.732 38.9263 41.2464 37 41.25C35.0737 41.2464 33.1922 40.732 31.5945 39.7723C29.9968 38.8125 28.7552 37.4507 28.0275 35.86L26.7017 35.9425ZM37 35.75C38.9117 35.75 40.4533 34.375 40.515 32.725L40.1758 29.7275C39.1892 30.0575 38.11 30.25 37 30.25C35.89 30.25 34.8417 30.0575 33.9167 29.7275L33.485 32.725C33.5467 34.375 35.0883 35.75 37 35.75ZM47.2983 30.4425C49.2408 30.4425 50.875 29.04 50.875 27.28C50.875 26.125 50.0425 24.97 48.8092 24.4475L46.0958 23.2925C45.7258 25.3275 44.5233 27.0875 42.8275 28.325L45.325 29.8925C45.88 30.25 46.5583 30.4425 47.2983 30.4425ZM45.2942 14.1075L42.7658 15.6475C44.4925 16.885 45.695 18.645 46.065 20.625L48.7783 19.525C50.0425 18.975 50.875 17.875 50.875 16.6925C50.875 14.96 49.2408 13.5575 47.2983 13.5575C46.5892 13.5575 45.9108 13.75 45.2942 14.1075ZM37 8.25C35.0883 8.25 33.5467 9.625 33.485 11.275L33.9167 14.2725C34.8417 13.9425 35.89 13.75 37 13.75C38.11 13.75 39.1892 13.9425 40.1758 14.2725L40.515 11.275C40.4533 9.625 38.9117 8.25 37 8.25ZM26.7017 13.5575C24.7592 13.5575 23.125 14.96 23.125 16.6925C23.125 17.875 23.9575 18.975 25.1908 19.525L27.9042 20.625C28.2742 18.645 29.4767 16.885 31.1725 15.6475L28.675 14.1075C28.12 13.75 27.4417 13.5575 26.7017 13.5575ZM25.1908 24.475C23.9575 25.025 23.125 26.125 23.125 27.28C23.125 29.0125 24.7592 30.415 26.7017 30.415C27.4108 30.415 28.0892 30.25 28.7058 29.865L31.2033 28.3525C29.4767 27.115 28.2742 25.355 27.9042 23.375L25.1908 24.475ZM37 60.5C29.6402 60.5 22.5819 57.8924 17.3778 53.2509C12.1737 48.6094 9.25 42.3141 9.25 35.75C16.6098 35.75 23.6681 38.3576 28.8722 42.9991C34.0763 47.6406 37 53.9359 37 60.5C37 53.9359 39.9237 47.6406 45.1278 42.9991C50.3319 38.3576 57.3902 35.75 64.75 35.75C64.75 42.3141 61.8263 48.6094 56.6222 53.2509C51.4181 57.8924 44.3598 60.5 37 60.5ZM44.5233 53.79C47.4248 52.8196 50.0597 51.3064 52.2509 49.3521C54.442 47.3979 56.1387 45.0478 57.2267 42.46C51.3683 44.385 46.7125 48.565 44.5233 53.79ZM16.7733 42.46C17.8613 45.0478 19.558 47.3979 21.7491 49.3521C23.9403 51.3064 26.5752 52.8196 29.4767 53.79C27.3183 48.565 22.6317 44.4125 16.7733 42.46Z" fill="#FFEB00"/>
<path d="M77.432 40V26H83.332C84.8254 26 86.1387 26.2933 87.272 26.88C88.4187 27.4667 89.3054 28.2867 89.932 29.34C90.572 30.3933 90.892 31.6133 90.892 33C90.892 34.3867 90.572 35.6067 89.932 36.66C89.3054 37.7133 88.4187 38.5333 87.272 39.12C86.1387 39.7067 84.8254 40 83.332 40H77.432ZM79.432 38.26H83.212C84.372 38.26 85.372 38.04 86.212 37.6C87.0654 37.16 87.7254 36.5467 88.192 35.76C88.6587 34.96 88.892 34.04 88.892 33C88.892 31.9467 88.6587 31.0267 88.192 30.24C87.7254 29.4533 87.0654 28.84 86.212 28.4C85.372 27.96 84.372 27.74 83.212 27.74H79.432V38.26ZM98.8955 40.12C97.7621 40.12 96.7621 39.8867 95.8955 39.42C95.0421 38.9533 94.3755 38.3133 93.8955 37.5C93.4288 36.6867 93.1955 35.7533 93.1955 34.7C93.1955 33.6467 93.4221 32.7133 93.8755 31.9C94.3421 31.0867 94.9755 30.4533 95.7755 30C96.5888 29.5333 97.5021 29.3 98.5155 29.3C99.5421 29.3 100.449 29.5267 101.235 29.98C102.022 30.4333 102.635 31.0733 103.075 31.9C103.529 32.7133 103.755 33.6667 103.755 34.76C103.755 34.84 103.749 34.9333 103.735 35.04C103.735 35.1467 103.729 35.2467 103.715 35.34H94.6955V33.96H102.715L101.935 34.44C101.949 33.76 101.809 33.1533 101.515 32.62C101.222 32.0867 100.815 31.6733 100.295 31.38C99.7888 31.0733 99.1955 30.92 98.5155 30.92C97.8488 30.92 97.2555 31.0733 96.7355 31.38C96.2155 31.6733 95.8088 32.0933 95.5155 32.64C95.2221 33.1733 95.0755 33.7867 95.0755 34.48V34.8C95.0755 35.5067 95.2355 36.14 95.5555 36.7C95.8888 37.2467 96.3488 37.6733 96.9355 37.98C97.5221 38.2867 98.1955 38.44 98.9555 38.44C99.5821 38.44 100.149 38.3333 100.655 38.12C101.175 37.9067 101.629 37.5867 102.015 37.16L103.075 38.4C102.595 38.96 101.995 39.3867 101.275 39.68C100.569 39.9733 99.7755 40.12 98.8955 40.12ZM109.962 40.12C109.082 40.12 108.242 40 107.442 39.76C106.655 39.52 106.035 39.2267 105.582 38.88L106.382 37.36C106.835 37.6667 107.395 37.9267 108.062 38.14C108.728 38.3533 109.408 38.46 110.102 38.46C110.995 38.46 111.635 38.3333 112.022 38.08C112.422 37.8267 112.622 37.4733 112.622 37.02C112.622 36.6867 112.502 36.4267 112.262 36.24C112.022 36.0533 111.702 35.9133 111.302 35.82C110.915 35.7267 110.482 35.6467 110.002 35.58C109.522 35.5 109.042 35.4067 108.562 35.3C108.082 35.18 107.642 35.02 107.242 34.82C106.842 34.6067 106.522 34.32 106.282 33.96C106.042 33.5867 105.922 33.0933 105.922 32.48C105.922 31.84 106.102 31.28 106.462 30.8C106.822 30.32 107.328 29.9533 107.982 29.7C108.648 29.4333 109.435 29.3 110.342 29.3C111.035 29.3 111.735 29.3867 112.442 29.56C113.162 29.72 113.748 29.9533 114.202 30.26L113.382 31.78C112.902 31.46 112.402 31.24 111.882 31.12C111.362 31 110.842 30.94 110.322 30.94C109.482 30.94 108.855 31.08 108.442 31.36C108.028 31.6267 107.822 31.9733 107.822 32.4C107.822 32.76 107.942 33.04 108.182 33.24C108.435 33.4267 108.755 33.5733 109.142 33.68C109.542 33.7867 109.982 33.88 110.462 33.96C110.942 34.0267 111.422 34.12 111.902 34.24C112.382 34.3467 112.815 34.5 113.202 34.7C113.602 34.9 113.922 35.18 114.162 35.54C114.415 35.9 114.542 36.38 114.542 36.98C114.542 37.62 114.355 38.1733 113.982 38.64C113.608 39.1067 113.082 39.4733 112.402 39.74C111.722 39.9933 110.908 40.12 109.962 40.12ZM119.486 40L115.546 29.4H117.366L120.866 39H120.006L123.646 29.4H125.266L128.826 39H127.986L131.566 29.4H133.286L129.326 40H127.486L124.146 31.24H124.706L121.326 40H119.486ZM141.982 40V37.76L141.882 37.34V33.52C141.882 32.7067 141.642 32.08 141.162 31.64C140.695 31.1867 139.989 30.96 139.042 30.96C138.415 30.96 137.802 31.0667 137.202 31.28C136.602 31.48 136.095 31.7533 135.682 32.1L134.882 30.66C135.429 30.22 136.082 29.8867 136.842 29.66C137.615 29.42 138.422 29.3 139.262 29.3C140.715 29.3 141.835 29.6533 142.622 30.36C143.409 31.0667 143.802 32.1467 143.802 33.6V40H141.982ZM138.502 40.12C137.715 40.12 137.022 39.9867 136.422 39.72C135.835 39.4533 135.382 39.0867 135.062 38.62C134.742 38.14 134.582 37.6 134.582 37C134.582 36.4267 134.715 35.9067 134.982 35.44C135.262 34.9733 135.709 34.6 136.322 34.32C136.949 34.04 137.789 33.9 138.842 33.9H142.202V35.28H138.922C137.962 35.28 137.315 35.44 136.982 35.76C136.649 36.08 136.482 36.4667 136.482 36.92C136.482 37.44 136.689 37.86 137.102 38.18C137.515 38.4867 138.089 38.64 138.822 38.64C139.542 38.64 140.169 38.48 140.702 38.16C141.249 37.84 141.642 37.3733 141.882 36.76L142.262 38.08C142.009 38.7067 141.562 39.2067 140.922 39.58C140.282 39.94 139.475 40.12 138.502 40.12ZM153.475 40.12C152.595 40.12 151.788 39.92 151.055 39.52C150.335 39.1067 149.755 38.5 149.315 37.7C148.888 36.9 148.675 35.9 148.675 34.7C148.675 33.5 148.882 32.5 149.295 31.7C149.722 30.9 150.295 30.3 151.015 29.9C151.748 29.5 152.568 29.3 153.475 29.3C154.515 29.3 155.435 29.5267 156.235 29.98C157.035 30.4333 157.668 31.0667 158.135 31.88C158.602 32.68 158.835 33.62 158.835 34.7C158.835 35.78 158.602 36.7267 158.135 37.54C157.668 38.3533 157.035 38.9867 156.235 39.44C155.435 39.8933 154.515 40.12 153.475 40.12ZM147.855 43.88V29.4H149.695V32.26L149.575 34.72L149.775 37.18V43.88H147.855ZM153.315 38.44C153.995 38.44 154.602 38.2867 155.135 37.98C155.682 37.6733 156.108 37.24 156.415 36.68C156.735 36.1067 156.895 35.4467 156.895 34.7C156.895 33.94 156.735 33.2867 156.415 32.74C156.108 32.18 155.682 31.7467 155.135 31.44C154.602 31.1333 153.995 30.98 153.315 30.98C152.648 30.98 152.042 31.1333 151.495 31.44C150.962 31.7467 150.535 32.18 150.215 32.74C149.908 33.2867 149.755 33.94 149.755 34.7C149.755 35.4467 149.908 36.1067 150.215 36.68C150.535 37.24 150.962 37.6733 151.495 37.98C152.042 38.2867 152.648 38.44 153.315 38.44Z" fill="black"/>
</svg>
